<svg xmlns="http://www.w3.org/2000/svg" viewBox="0 0 1200 1200"><title>logo</title><circle cx="600" cy="600" r="600" fill="#016646"/><circle cx="600" cy="600" r="350"/><path d="M369.32,636.48c2.11,1.14,5,1.76,6.2,3.52,6.29,9,12.19,18.34,18.18,27.58,18.94,29.22,45.85,43.39,80.61,42.79,1.37,0,2.74,0,4.86,0v33.34c-31.75,4.93-70.05-15.72-85.93-47.21-8.78-17.42-16.18-35.54-24-53.45C368.47,641.22,369.26,638.69,369.32,636.48Zm293.13,204c-8.7,31.55-31.14,51.13-63.21,57.31-31.17,6-57.67-4-78.05-28.73-4-4.86-7.44-10.19-12.1-16.64,26.25-8.53,44.83-25.29,62-47.38-.31,5.16-.51,7.79-.62,10.43-.35,8.47,5,14.92,12.78,15.34,7,.38,13.81-5.4,14.43-13.16.53-6.57.14-13.22.18-19.84.13-20,13-35.05,31-36.34,19.34-1.38,35.57,10.73,36.95,30.79C666.92,808.24,666.66,825.2,662.45,840.47Zm243.07,20.15c-.11,12-7.72,19.84-19.57,20-18.2.29-36.41.34-54.6,0-13-.25-17.31-9.42-12.68-21.43a115.8,115.8,0,0,0,7.67-33.35c1.24-18.35.33-36.84.33-57.33,10.91,1.12,20.91,1.87,30.83,3.23,13.91,1.9,27.74,4.42,41.64,6.33,4.65.64,6.62,2.24,6.57,7.25C905.5,810.43,905.75,835.52,905.52,860.62Zm121.88,17.52c-.78,1.54-4.14,2.44-6.33,2.49-10.75.24-21.51.36-32.26,0-13-.42-17.12-9.38-12.42-21.56,4.08-10.57,6.39-22.07,7.75-33.37,1.27-10.56.27-21.39.27-33.71,12.67,2.54,24.21,4.6,35.59,7.39,1.86.45,3.5,3.89,4.29,6.27,3.7,11.23,7.11,22.57,10.55,33.89C1039.12,853.68,1033.55,866.05,1027.4,878.14Zm118.85-77.48c2.66,24.67,5.58,49.32,8.2,74,1.37,12.86-5.39,22.49-18,22.93-24.81.87-49.67.63-74.51.3-8.12-.11-10.9-6.85-6.82-14.26,2.52-4.58,5.39-9,7.29-13.87,4.77-12.08,6.33-24.17,1.44-37-4.8-12.58-8.15-25.72-12.07-38.63-3.71-12.23-11.66-19.06-24.36-21.81-58.52-12.66-117.63-21.46-177.1-28a34,34,0,0,1-5-1.39,25.31,25.31,0,0,1,2-3.14c19.53-22.29,28.59-48.66,30.41-77.87.38-6.05,1-12.09,1.46-18.14.65-8.74-4.24-15.24-12-16s-13.68,4.79-14.56,13.58c-1,10.43-1.77,20.89-3,31.29C847.3,692.78,838.56,710,825,724.85c-6.89,7.54-13.75,15.11-20.73,22.56a35.38,35.38,0,0,0-9.94,25.47c.16,33.68.09,67.36,0,101,0,16.31-7.5,24-23.62,24.13-20.7.14-41.42.45-62.1-.27-5.17-.18-11.08-3.08-15-6.59-2.17-2-2.49-8.65-.84-11.68A80.19,80.19,0,0,0,702.68,839c-.36-25.39.38-50.81-.35-76.18-.32-11.1-2.4-22.3-4.95-33.15-5.64-24.05-12.3-47.78-37.25-60.32l27.25-46.29c9.55,10.92,18.41,21,27.24,31.14S728,665.17,739.43,658c15.64-9.84,30.9-20.36,47-29.47,30.08-17.08,46.75-42.65,51.48-76.59,2.24-16.1,5.35-32.09,7.2-48.24,2.83-24.71-5.69-45.57-25.63-60.16-20.45-15-42.08-28.36-63.58-41.84-3.41-2.14-9.19-2.39-13.25-1.27-13.52,3.74-26.81,8.39-40.1,12.92-9,3.06-13,10.3-10.29,17.83,2.55,7.13,9.68,10.06,18.51,7.31,10.26-3.2,20.36-6.93,30.71-9.76a13.5,13.5,0,0,1,9.65,1.35c16.6,10.39,33.06,21,49.27,32,14.85,10.08,21.12,24.23,18.12,42.17s-5.83,35.9-9,53.8c-2.73,15.23-9.73,28.58-22.32,37.52C769,608.45,749.89,620,730.81,632.43c-11.38-13-22.2-25.47-33.18-37.81-8.36-9.4-11.1-9.36-17.78.52-44.22,65.35-89.1,130.25-133.29,195.62C522.73,826,490,839.49,448.31,834.94c-17.46-1.91-34.39-4.43-49.68-13.73-16-9.73-28.37-22.77-36.25-39.78s-15.48-34.14-22.87-51.36c-1-2.21.09-5.28.2-8,2.08,1.37,4.83,2.27,6.13,4.17,7.17,10.47,13.88,21.25,20.93,31.79,27.86,41.61,83.73,53.6,126.62,27.48,5.55-3.38,7.9-7.15,7.88-13.86-.09-39.75-1.29-79.58.87-119.22,4.38-80.27,27.94-153.73,83.05-214.66a24.22,24.22,0,0,0,1.83-3.09c-10.54-1.58-20.47-3.24-30.44-4.48-5.23-.65-9.6-2.46-9.56-8.17,0-6.23,4.92-7.81,10.34-8.36,17.76-1.83,35.51-3.81,53.93-7.3-2.11-1-4.12-2.34-6.34-3-8.75-2.44-17.58-4.62-26.36-6.95-4.8-1.27-7.95-4-7.22-9.42s4.64-7,9.59-6.76c16,.88,32,1.83,47.93,2.69a18.19,18.19,0,0,0,9.34-1.64,32.53,32.53,0,0,0-4.51-3.53c-8.26-4.43-16.59-8.72-24.91-13-5.25-2.72-11.22-5.43-8.41-12.86s9-5.76,14.76-4.16c44.07,12.17,88.25,24,132.14,36.77,9.59,2.8,17.95-.11,26.74-1.16,40.86-4.88,76.78,6.31,108.82,31.73a313.13,313.13,0,0,0,29.86,20.55c25.31,15.68,50.39,31.84,76.51,46.06a306.62,306.62,0,0,0,53.92,22.88C1105.48,524.31,1135,571,1150.6,630.4c8.15,31,5.67,61.65-.46,92.5-2.85,14.32-5.87,28.75-6.75,43.25C1142.7,777.56,1145,789.17,1146.25,800.66Z" transform="translate(-40 -40)" fill="#fff"/><path d="M640,40C308.63,40,40,308.63,40,640s268.63,600,600,600,600-268.63,600-600S971.37,40,640,40Zm0,950c-193.3,0-350-156.7-350-350S446.7,290,640,290,990,446.7,990,640,833.3,990,640,990Z" transform="translate(-40 -40)" fill="#016646"/><circle cx="600.42" cy="603.25" r="565" fill="none" stroke="#fff" stroke-miterlimit="10" stroke-width="18"/><circle cx="599.42" cy="600" r="360" fill="none" stroke="#fff" stroke-miterlimit="10" stroke-width="20"/><path d="M506.92,1154.7l-32.73-14.23L441,1043.83,410.93,1113l-36.42-15.84,54-124.13,32.64,14.19,33.18,96.21,29.9-68.78,36.69,16Z" transform="translate(-40 -40)" fill="#fff"/><path d="M703.8,1169.09l-100.26.36-.48-135.35,98.62-.35.1,27.15-58.52.21.09,24.81,55.84-.2.1,27.25-55.84.2.1,28.91,60.15-.21Z" transform="translate(-40 -40)" fill="#fff"/><path d="M875.72,1004.24,831.19,1024l41.62,93.61-36.56,16.25-41.62-93.61-44.53,19.8L736.73,1030l125.62-55.85Z" transform="translate(-40 -40)" fill="#fff"/><path d="M268.2,513.64l-5.08,40.5-77.81-9.75,40.48,42.18-.4,3.2-49.65,31,77.81,9.75-4.93,39.34L114.33,653l4.6-36.72,55.56-35L129.3,533.54l4.6-36.72Z" transform="translate(-40 -40)" fill="#fff"/><path d="M369.55,354.34l-23.68,34.45L317,382.34l-33.3,48.45L300,455.59,276.28,490,198.65,364l25.56-37.18ZM292.3,376.73l-52-11.65,29.38,44.49Z" transform="translate(-40 -40)" fill="#fff"/><path d="M451.33,256.67q6.93,10.64,6.55,22a41,41,0,0,1-7.42,21.79q-7,10.48-19.65,18.68-3.52,2.29-8.93,5.17a116.24,116.24,0,0,1-15.21,6.35,127.07,127.07,0,0,1-21.58,5.43L367,308.24a148.16,148.16,0,0,0,22.65-2.17A53.86,53.86,0,0,0,409.72,298q8.75-5.7,9.44-10.29t-1-7.12q-3-4.58-9.46-4.85t-17.08,1.86a121.07,121.07,0,0,1-21.94,2.11,46.22,46.22,0,0,1-19-4.09,35.55,35.55,0,0,1-15.17-13.54,37.32,37.32,0,0,1-6.29-19.5q-.33-10.34,6-20.78T355,202.67a94,94,0,0,1,18.75-9.59,90.84,90.84,0,0,1,16-4.53,63.59,63.59,0,0,1,9.55-1.09L416.57,214a111.57,111.57,0,0,0-21.32,1.18,51.67,51.67,0,0,0-20.85,8q-6.38,4.16-7.65,8.48a9.15,9.15,0,0,0,1.08,7.92,8.86,8.86,0,0,0,6.65,3.94q4.46.59,14.12-.69a244,244,0,0,1,28.14-2.6,49.39,49.39,0,0,1,19.7,3.31Q445.09,247.1,451.33,256.67Z" transform="translate(-40 -40)" fill="#fff"/><path d="M612.61,148.33,564,158.1l20.17,100.44-39.92,8L524.05,166.12l-48.64,9.77-6.48-32.27,137.2-27.56Z" transform="translate(-40 -40)" fill="#fff"/><path d="M800.22,209.33A71.27,71.27,0,0,1,785.16,242q-11.54,14-30.27,20t-43.1,1.4q-24.66-4.66-39.93-17.48t-20.62-30a73.27,73.27,0,0,1,12.6-67q11.2-14,30.13-20.35t43.59-1.66q18.42,3.48,31.83,11.67t21,19.31a63.54,63.54,0,0,1,10,24.45A73.26,73.26,0,0,1,800.22,209.33Zm-40.88-7.72a41.2,41.2,0,0,0,.37-14.09,29.69,29.69,0,0,0-4.64-12,31.51,31.51,0,0,0-9.55-9.16A41,41,0,0,0,731.13,161Q715,158,704,165.63t-13.87,22.92q-2.88,15.26,4.6,26.46t23.5,14.22q11,2.08,19.63-.82A29.56,29.56,0,0,0,752,218.55,38.39,38.39,0,0,0,759.34,201.61Z" transform="translate(-40 -40)" fill="#fff"/><path d="M920.33,365.68l-29.82-20.74L875.92,243l-43,61.89-33.19-23.09L877,170.64l29.74,20.69,14.65,101.55,42.83-61.57,33.43,23.25Z" transform="translate(-40 -40)" fill="#fff"/><path d="M1067.56,471a71.24,71.24,0,0,1-34.34,10.61q-18.14.78-35.12-9.13T968.25,441.4q-13-21.46-13.68-41.38t8.56-35.41a73.26,73.26,0,0,1,58.3-35.42q17.92-1.05,35.27,8.82t30.37,31.32q9.72,16,12.59,31.48t-.36,28.49a63.56,63.56,0,0,1-11.51,23.77A73.27,73.27,0,0,1,1067.56,471ZM1046,435.48a41.2,41.2,0,0,0,10.73-9.14,29.67,29.67,0,0,0,5.83-11.48,31.49,31.49,0,0,0,.43-13.22,41,41,0,0,0-5.64-14.28q-8.51-14-21.55-17.08t-26.32,5q-13.27,8.05-16.61,21.1t5.12,27q5.82,9.6,13.73,14.06a29.54,29.54,0,0,0,16.75,3.89A38.39,38.39,0,0,0,1046,435.48Z" transform="translate(-40 -40)" fill="#fff"/><path d="M1031.53,664.87,1027,628.82l66.14-79-74.81,9.31-5-40.12,134.31-16.72,4.48,36L1086.39,617l74.42-9.27,5,40.41Z" transform="translate(-40 -40)" fill="#fff"/></svg>