<svg xmlns="http://www.w3.org/2000/svg" viewBox="0 0 1200 1200"><defs><style>.a{fill:#016646;}.b{fill:#fff;}.c,.d{fill:none;stroke:#fff;stroke-miterlimit:10;}.c{stroke-width:30px;}.d{stroke-width:40px;}</style></defs><title>mastonon</title><circle class="a" cx="600" cy="600" r="600"/><circle cx="600" cy="600" r="335"/><path class="b" d="M369.32,636.48c2.11,1.14,5,1.76,6.2,3.52,6.29,9,12.19,18.34,18.18,27.58,18.94,29.22,45.85,43.39,80.61,42.79,1.37,0,2.74,0,4.86,0v33.34c-31.75,4.93-70.05-15.72-85.93-47.21-8.78-17.42-16.18-35.54-24-53.45C368.47,641.22,369.26,638.69,369.32,636.48Zm293.13,204c-8.7,31.55-31.14,51.13-63.21,57.31-31.17,6-57.67-4-78.05-28.73-4-4.86-7.44-10.19-12.1-16.64,26.25-8.53,44.83-25.29,62-47.38-.31,5.16-.51,7.79-.62,10.43-.35,8.47,5,14.92,12.78,15.34,7,.38,13.81-5.4,14.43-13.16.53-6.57.14-13.22.18-19.84.13-20,13-35.05,31-36.34,19.34-1.38,35.57,10.73,36.95,30.79C666.92,808.24,666.66,825.2,662.45,840.47Zm243.07,20.15c-.11,12-7.72,19.84-19.57,20-18.2.29-36.41.34-54.6,0-13-.25-17.31-9.42-12.68-21.43a115.8,115.8,0,0,0,7.67-33.35c1.24-18.35.33-36.84.33-57.33,10.91,1.12,20.91,1.87,30.83,3.23,13.91,1.9,27.74,4.42,41.64,6.33,4.65.64,6.62,2.24,6.57,7.25C905.5,810.43,905.75,835.52,905.52,860.62Zm121.88,17.52c-.78,1.54-4.14,2.44-6.33,2.49-10.75.24-21.51.36-32.26,0-13-.42-17.12-9.38-12.42-21.56,4.08-10.57,6.39-22.07,7.75-33.37,1.27-10.56.27-21.39.27-33.71,12.67,2.54,24.21,4.6,35.59,7.39,1.86.45,3.5,3.89,4.29,6.27,3.7,11.23,7.11,22.57,10.55,33.89C1039.12,853.68,1033.55,866.05,1027.4,878.14Zm118.85-77.48c2.66,24.67,5.58,49.32,8.2,74,1.37,12.86-5.39,22.49-18,22.93-24.81.87-49.67.63-74.51.3-8.12-.11-10.9-6.85-6.82-14.26,2.52-4.58,5.39-9,7.29-13.87,4.77-12.08,6.33-24.17,1.44-37-4.8-12.58-8.15-25.72-12.07-38.63-3.71-12.23-11.66-19.06-24.36-21.81-58.52-12.66-117.63-21.46-177.1-28a34,34,0,0,1-5-1.39,25.31,25.31,0,0,1,2-3.14c19.53-22.29,28.59-48.66,30.41-77.87.38-6.05,1-12.09,1.46-18.14.65-8.74-4.24-15.24-12-16s-13.68,4.79-14.56,13.58c-1,10.43-1.77,20.89-3,31.29C847.3,692.78,838.56,710,825,724.85c-6.89,7.54-13.75,15.11-20.73,22.56a35.38,35.38,0,0,0-9.94,25.47c.16,33.68.09,67.36,0,101,0,16.31-7.5,24-23.62,24.13-20.7.14-41.42.45-62.1-.27-5.17-.18-11.08-3.08-15-6.59-2.17-2-2.49-8.65-.84-11.68A80.19,80.19,0,0,0,702.68,839c-.36-25.39.38-50.81-.35-76.18-.32-11.1-2.4-22.3-4.95-33.15-5.64-24.05-12.3-47.78-37.25-60.32l27.25-46.29c9.55,10.92,18.41,21,27.24,31.14S728,665.17,739.43,658c15.64-9.84,30.9-20.36,47-29.47,30.08-17.08,46.75-42.65,51.48-76.59,2.24-16.1,5.35-32.09,7.2-48.24,2.83-24.71-5.69-45.57-25.63-60.16-20.45-15-42.08-28.36-63.58-41.84-3.41-2.14-9.19-2.39-13.25-1.27-13.52,3.74-26.81,8.39-40.1,12.92-9,3.06-13,10.3-10.29,17.83,2.55,7.13,9.68,10.06,18.51,7.31,10.26-3.2,20.36-6.93,30.71-9.76a13.5,13.5,0,0,1,9.65,1.35c16.6,10.39,33.06,21,49.27,32,14.85,10.08,21.12,24.23,18.12,42.17s-5.83,35.9-9,53.8c-2.73,15.23-9.73,28.58-22.32,37.52C769,608.45,749.89,620,730.81,632.43c-11.38-13-22.2-25.47-33.18-37.81-8.36-9.4-11.1-9.36-17.78.52-44.22,65.35-89.1,130.25-133.29,195.62C522.73,826,490,839.49,448.31,834.94c-17.46-1.91-34.39-4.43-49.68-13.73-16-9.73-28.37-22.77-36.25-39.78s-15.48-34.14-22.87-51.36c-1-2.21.09-5.28.2-8,2.08,1.37,4.83,2.27,6.13,4.17,7.17,10.47,13.88,21.25,20.93,31.79,27.86,41.61,83.73,53.6,126.62,27.48,5.55-3.38,7.9-7.15,7.88-13.86-.09-39.75-1.29-79.58.87-119.22,4.38-80.27,27.94-153.73,83.05-214.66a24.22,24.22,0,0,0,1.83-3.09c-10.54-1.58-20.47-3.24-30.44-4.48-5.23-.65-9.6-2.46-9.56-8.17,0-6.23,4.92-7.81,10.34-8.36,17.76-1.83,35.51-3.81,53.93-7.3-2.11-1-4.12-2.34-6.34-3-8.75-2.44-17.58-4.62-26.36-6.95-4.8-1.27-7.95-4-7.22-9.42s4.64-7,9.59-6.76c16,.88,32,1.83,47.93,2.69a18.19,18.19,0,0,0,9.34-1.64,32.53,32.53,0,0,0-4.51-3.53c-8.26-4.43-16.59-8.72-24.91-13-5.25-2.72-11.22-5.43-8.41-12.86s9-5.76,14.76-4.16c44.07,12.17,88.25,24,132.14,36.77,9.59,2.8,17.95-.11,26.74-1.16,40.86-4.88,76.78,6.31,108.82,31.73a313.13,313.13,0,0,0,29.86,20.55c25.31,15.68,50.39,31.84,76.51,46.06a306.62,306.62,0,0,0,53.92,22.88C1105.48,524.31,1135,571,1150.6,630.4c8.15,31,5.67,61.65-.46,92.5-2.85,14.32-5.87,28.75-6.75,43.25C1142.7,777.56,1145,789.17,1146.25,800.66Z" transform="translate(-40 -40)"/><path class="a" d="M640,40C308.63,40,40,308.63,40,640s268.63,600,600,600,600-268.63,600-600S971.37,40,640,40Zm0,950c-193.3,0-350-156.7-350-350S446.7,290,640,290,990,446.7,990,640,833.3,990,640,990Z" transform="translate(-40 -40)"/><circle class="c" cx="600" cy="600" r="565"/><circle class="d" cx="599.42" cy="600" r="350"/><path class="b" d="M531.77,1145.75l-30.3-11-35.27-84.89-23.3,63.55-33.73-12.29L451,987l30.22,11,35.23,84.5,23.18-63.22,34,12.38Z" transform="translate(-40 -40)"/><path class="b" d="M697.89,1155l-90.61.09L607,1033.57l89.13-.09.06,24.37-52.89.05.06,22.27,50.46,0,.06,24.46-50.46.05.07,26,54.37-.05Z" transform="translate(-40 -40)"/><path class="b" d="M850,1016.65l-41.33,15.1,32,86.33-33.92,12.4-32-86.34-41.33,15.1-10.28-27.74,116.57-42.6Z" transform="translate(-40 -40)"/><path class="b" d="M289.19,435l-12.73,34.46L210.25,445l26.85,45.24-1,2.72-49.85,17,66.2,24.46-12.37,33.47L125.82,525.71l11.54-31.25,55.85-19.28-29.84-51.12,11.54-31.25Z" transform="translate(-40 -40)"/><path class="b" d="M401.73,310.29l-26,27.21L351,327.64l-36.53,38.28,10.89,24.36-26,27.21L248.5,294.41l28-29.38Zm-71.84,8.83-44.49-17.8,19.73,43.74Z" transform="translate(-40 -40)"/><path class="b" d="M478.49,233a33.6,33.6,0,0,1,4,20.23A36.93,36.93,0,0,1,474,272.1a61,61,0,0,1-19.2,15.06q-3.35,1.75-8.44,3.87a104.71,104.71,0,0,1-14.17,4.39,114.33,114.33,0,0,1-19.8,3L398.51,272A133.36,133.36,0,0,0,419,272a48.48,48.48,0,0,0,18.69-5.52Q446,262.09,447,258t-.26-6.46q-2.28-4.36-8.06-5.16a67.6,67.6,0,0,0-15.47.21,109.11,109.11,0,0,1-19.83,0,41.62,41.62,0,0,1-16.71-5.29,32,32,0,0,1-12.44-13.43,33.59,33.59,0,0,1-4-18q.59-9.29,7.19-18.1t19.29-15.46a84.63,84.63,0,0,1,17.62-7,81.71,81.71,0,0,1,14.71-2.69,57.21,57.21,0,0,1,8.65-.16L451,191.82a100.36,100.36,0,0,0-19.2-.76,46.5,46.5,0,0,0-19.36,5.38q-6.07,3.18-7.58,6.94a8.24,8.24,0,0,0,.29,7.19,8,8,0,0,0,5.62,4.1q3.95.91,12.71.59a219.56,219.56,0,0,1,25.44.07A44.45,44.45,0,0,1,466.28,220Q473.72,223.87,478.49,233Z" transform="translate(-40 -40)"/><path class="b" d="M599.18,145.44,555.5,154.7l19.11,90.19-35.85,7.6-19.11-90.19L476,171.55l-6.14-29L593,116.47Z" transform="translate(-40 -40)"/><path class="b" d="M760.25,189.53A64.13,64.13,0,0,1,749,219.84q-9.41,13.37-25.8,20T684.56,244q-22.45-2.51-37-13T627,205.52a65.94,65.94,0,0,1,6.77-61q9.1-13.35,25.66-20.31t39-4.44q16.77,1.87,29.36,8.32A60.28,60.28,0,0,1,747.91,144a57.18,57.18,0,0,1,10.63,21.26A65.92,65.92,0,0,1,760.25,189.53ZM723,185.37a37.05,37.05,0,0,0-.62-12.67,26.72,26.72,0,0,0-5-10.46,28.36,28.36,0,0,0-9.19-7.57A36.9,36.9,0,0,0,695,150.85q-14.67-1.64-24,6t-10.89,21.51q-1.55,13.89,5.92,23.43T688,213q10,1.12,17.56-2.06a26.6,26.6,0,0,0,12-9.81A34.54,34.54,0,0,0,723,185.37Z" transform="translate(-40 -40)"/><path class="b" d="M883.23,315.6l-29-15.11-24.69-89.37-31.35,60.17-32.27-16.81,56.29-108,28.92,15.07,24.7,89L907,190.63l32.5,16.94Z" transform="translate(-40 -40)"/><path class="b" d="M1031.12,386.36a64.12,64.12,0,0,1-28.71,14.9q-15.94,3.6-32.57-2.46T938.42,376q-15-16.92-18.75-34.46t1.91-32.73a65.94,65.94,0,0,1,46-40.71q15.7-3.8,32.65,2.15t31.91,22.87q11.18,12.64,16.19,25.87a60.3,60.3,0,0,1,4.24,25.29,57.2,57.2,0,0,1-6.38,22.9A65.93,65.93,0,0,1,1031.12,386.36Zm-24.81-28a37.08,37.08,0,0,0,8-9.81,26.71,26.71,0,0,0,3.33-11.1,28.34,28.34,0,0,0-1.74-11.78,36.9,36.9,0,0,0-7.28-11.75q-9.78-11.06-21.83-11.67t-22.51,8.65q-10.47,9.26-11.33,21.35t8.86,23.08q6.7,7.57,14.41,10.25a26.59,26.59,0,0,0,15.46.76A34.53,34.53,0,0,0,1006.31,358.32Z" transform="translate(-40 -40)"/><path class="b" d="M1038,562.29l-11.42-30.64,41.51-82.91-63.58,23.7-12.71-34.1L1106,395.8l11.39,30.55L1076.13,509l63.25-23.57,12.8,34.34Z" transform="translate(-40 -40)"/></svg>