<svg xmlns="http://www.w3.org/2000/svg" viewBox="0 0 1200 1200"><defs><style>.a{fill:#016646;}.b{fill:#fff;}.c,.d{fill:none;stroke:#fff;stroke-miterlimit:10;}.c{stroke-width:18px;}.d{stroke-width:20px;}</style></defs><title>logo</title><circle class="a" cx="600" cy="600" r="600"/><circle cx="600" cy="600" r="350"/><path class="b" d="M369.32,636.48c2.11,1.14,5,1.76,6.2,3.52,6.29,9,12.19,18.34,18.18,27.58,18.94,29.22,45.85,43.39,80.61,42.79,1.37,0,2.74,0,4.86,0v33.34c-31.75,4.93-70.05-15.72-85.93-47.21-8.78-17.42-16.18-35.54-24-53.45C368.47,641.22,369.26,638.69,369.32,636.48Zm293.13,204c-8.7,31.55-31.14,51.13-63.21,57.31-31.17,6-57.67-4-78.05-28.73-4-4.86-7.44-10.19-12.1-16.64,26.25-8.53,44.83-25.29,62-47.38-.31,5.16-.51,7.79-.62,10.43-.35,8.47,5,14.92,12.78,15.34,7,.38,13.81-5.4,14.43-13.16.53-6.57.14-13.22.18-19.84.13-20,13-35.05,31-36.34,19.34-1.38,35.57,10.73,36.95,30.79C666.92,808.24,666.66,825.2,662.45,840.47Zm243.07,20.15c-.11,12-7.72,19.84-19.57,20-18.2.29-36.41.34-54.6,0-13-.25-17.31-9.42-12.68-21.43a115.8,115.8,0,0,0,7.67-33.35c1.24-18.35.33-36.84.33-57.33,10.91,1.12,20.91,1.87,30.83,3.23,13.91,1.9,27.74,4.42,41.64,6.33,4.65.64,6.62,2.24,6.57,7.25C905.5,810.43,905.75,835.52,905.52,860.62Zm121.88,17.52c-.78,1.54-4.14,2.44-6.33,2.49-10.75.24-21.51.36-32.26,0-13-.42-17.12-9.38-12.42-21.56,4.08-10.57,6.39-22.07,7.75-33.37,1.27-10.56.27-21.39.27-33.71,12.67,2.54,24.21,4.6,35.59,7.39,1.86.45,3.5,3.89,4.29,6.27,3.7,11.23,7.11,22.57,10.55,33.89C1039.12,853.68,1033.55,866.05,1027.4,878.14Zm118.85-77.48c2.66,24.67,5.58,49.32,8.2,74,1.37,12.86-5.39,22.49-18,22.93-24.81.87-49.67.63-74.51.3-8.12-.11-10.9-6.85-6.82-14.26,2.52-4.58,5.39-9,7.29-13.87,4.77-12.08,6.33-24.17,1.44-37-4.8-12.58-8.15-25.72-12.07-38.63-3.71-12.23-11.66-19.06-24.36-21.81-58.52-12.66-117.63-21.46-177.1-28a34,34,0,0,1-5-1.39,25.31,25.31,0,0,1,2-3.14c19.53-22.29,28.59-48.66,30.41-77.87.38-6.05,1-12.09,1.46-18.14.65-8.74-4.24-15.24-12-16s-13.68,4.79-14.56,13.58c-1,10.43-1.77,20.89-3,31.29C847.3,692.78,838.56,710,825,724.85c-6.89,7.54-13.75,15.11-20.73,22.56a35.38,35.38,0,0,0-9.94,25.47c.16,33.68.09,67.36,0,101,0,16.31-7.5,24-23.62,24.13-20.7.14-41.42.45-62.1-.27-5.17-.18-11.08-3.08-15-6.59-2.17-2-2.49-8.65-.84-11.68A80.19,80.19,0,0,0,702.68,839c-.36-25.39.38-50.81-.35-76.18-.32-11.1-2.4-22.3-4.95-33.15-5.64-24.05-12.3-47.78-37.25-60.32l27.25-46.29c9.55,10.92,18.41,21,27.24,31.14S728,665.17,739.43,658c15.64-9.84,30.9-20.36,47-29.47,30.08-17.08,46.75-42.65,51.48-76.59,2.24-16.1,5.35-32.09,7.2-48.24,2.83-24.71-5.69-45.57-25.63-60.16-20.45-15-42.08-28.36-63.58-41.84-3.41-2.14-9.19-2.39-13.25-1.27-13.52,3.74-26.81,8.39-40.1,12.92-9,3.06-13,10.3-10.29,17.83,2.55,7.13,9.68,10.06,18.51,7.31,10.26-3.2,20.36-6.93,30.71-9.76a13.5,13.5,0,0,1,9.65,1.35c16.6,10.39,33.06,21,49.27,32,14.85,10.08,21.12,24.23,18.12,42.17s-5.83,35.9-9,53.8c-2.73,15.23-9.73,28.58-22.32,37.52C769,608.45,749.89,620,730.81,632.43c-11.38-13-22.2-25.47-33.18-37.81-8.36-9.4-11.1-9.36-17.78.52-44.22,65.35-89.1,130.25-133.29,195.62C522.73,826,490,839.49,448.31,834.94c-17.46-1.91-34.39-4.43-49.68-13.73-16-9.73-28.37-22.77-36.25-39.78s-15.48-34.14-22.87-51.36c-1-2.21.09-5.28.2-8,2.08,1.37,4.83,2.27,6.13,4.17,7.17,10.47,13.88,21.25,20.93,31.79,27.86,41.61,83.73,53.6,126.62,27.48,5.55-3.38,7.9-7.15,7.88-13.86-.09-39.75-1.29-79.58.87-119.22,4.38-80.27,27.94-153.73,83.05-214.66a24.22,24.22,0,0,0,1.83-3.09c-10.54-1.58-20.47-3.24-30.44-4.48-5.23-.65-9.6-2.46-9.56-8.17,0-6.23,4.92-7.81,10.34-8.36,17.76-1.83,35.51-3.81,53.93-7.3-2.11-1-4.12-2.34-6.34-3-8.75-2.44-17.58-4.62-26.36-6.95-4.8-1.27-7.95-4-7.22-9.42s4.64-7,9.59-6.76c16,.88,32,1.83,47.93,2.69a18.19,18.19,0,0,0,9.34-1.64,32.53,32.53,0,0,0-4.51-3.53c-8.26-4.43-16.59-8.72-24.91-13-5.25-2.72-11.22-5.43-8.41-12.86s9-5.76,14.76-4.16c44.07,12.17,88.25,24,132.14,36.77,9.59,2.8,17.95-.11,26.74-1.16,40.86-4.88,76.78,6.31,108.82,31.73a313.13,313.13,0,0,0,29.86,20.55c25.31,15.68,50.39,31.84,76.51,46.06a306.62,306.62,0,0,0,53.92,22.88C1105.48,524.31,1135,571,1150.6,630.4c8.15,31,5.67,61.65-.46,92.5-2.85,14.32-5.87,28.75-6.75,43.25C1142.7,777.56,1145,789.17,1146.25,800.66Z" transform="translate(-40 -40)"/><path class="a" d="M640,40C308.63,40,40,308.63,40,640s268.63,600,600,600,600-268.63,600-600S971.37,40,640,40Zm0,950c-193.3,0-350-156.7-350-350S446.7,290,640,290,990,446.7,990,640,833.3,990,640,990Z" transform="translate(-40 -40)"/><circle class="c" cx="600.42" cy="603.25" r="565"/><circle class="d" cx="599.42" cy="600" r="360"/><path class="b" d="M513.8,1156.66l-32.92-13.79-34.5-96.18-29.12,69.54-36.63-15.34L432.9,976l32.83,13.75,34.48,95.75,29-69.18,36.9,15.45Z" transform="translate(-40 -40)"/><path class="b" d="M701.43,1169.41l-100.25-.1.14-135.35,98.62.1,0,27.15-58.52-.06,0,24.8,55.83.06,0,27.25-55.83-.06,0,28.91,60.15.06Z" transform="translate(-40 -40)"/><path class="b" d="M870.9,1007.47l-44.81,19.17,40.29,94.19-36.78,15.73-40.29-94.19-44.81,19.17-12.94-30.26L858,977.21Z" transform="translate(-40 -40)"/><path class="b" d="M273.29,499.51l-6.62,40.28-77.38-12.72,38.84,43.7-.52,3.18L176.8,603l77.38,12.72-6.43,39.12-133.56-22,6-36.52,56.86-32.81-43.33-49.48,6-36.52Z" transform="translate(-40 -40)"/><path class="b" d="M380.65,344.21l-25,33.52-28.6-7.54L292,417.33l15.3,25.4-25,33.52L209.51,347.38l27-36.18Zm-78,19.43L251.14,350l27.67,45.57Z" transform="translate(-40 -40)"/><path class="b" d="M466.09,249.72q6.52,10.9,5.71,22.19a41,41,0,0,1-8.25,21.5q-7.44,10.2-20.34,17.92-3.6,2.16-9.12,4.83a116.35,116.35,0,0,1-15.44,5.77,127.14,127.14,0,0,1-21.77,4.6l-17-28.49a148.3,148.3,0,0,0,22.72-1.3,53.88,53.88,0,0,0,20.38-7.3q9-5.37,9.83-9.92t-.7-7.15q-2.81-4.69-9.26-5.21t-17.14,1.21a121.16,121.16,0,0,1-22,1.27,46.23,46.23,0,0,1-18.87-4.81,35.56,35.56,0,0,1-14.65-14.11A37.31,37.31,0,0,1,344.6,231q.07-10.34,6.83-20.53t20.42-18.37a94.06,94.06,0,0,1,19.1-8.87,90.82,90.82,0,0,1,16.15-3.92,63.5,63.5,0,0,1,9.58-.73L433,205.8a111.53,111.53,0,0,0-21.35.37,51.67,51.67,0,0,0-21.14,7.18q-6.54,3.91-8,8.18a9.15,9.15,0,0,0,.78,8,8.87,8.87,0,0,0,6.49,4.2q4.44.76,14.14-.15A244.19,244.19,0,0,1,432.17,232a49.4,49.4,0,0,1,19.56,4.06Q460.23,239.92,466.09,249.72Z" transform="translate(-40 -40)"/><path class="b" d="M603.24,148.94l-48.44,10.7,22.09,100-39.76,8.78-22.1-100-48.44,10.7L459.49,147,596.14,116.8Z" transform="translate(-40 -40)"/><path class="b" d="M783.62,203.53a71.25,71.25,0,0,1-13.79,33.19q-11,14.45-29.47,21.17t-43,3.06q-24.82-3.7-40.57-15.93T635,215.81a73.26,73.26,0,0,1,10-67.47q10.65-14.46,29.32-21.49t43.5-3.33q18.54,2.77,32.26,10.44t21.68,18.49a63.53,63.53,0,0,1,10.92,24A73.23,73.23,0,0,1,783.62,203.53Zm-41.14-6.14a41.2,41.2,0,0,0-.17-14.1,29.69,29.69,0,0,0-5.1-11.82,31.49,31.49,0,0,0-9.9-8.78,41,41,0,0,0-14.59-4.79q-16.23-2.42-26.91,5.66t-13,23.44q-2.29,15.36,5.61,26.26t24,13.31q11.1,1.66,19.59-1.57a29.55,29.55,0,0,0,13.7-10.4A38.38,38.38,0,0,0,742.47,197.39Z" transform="translate(-40 -40)"/><path class="b" d="M909.66,355.19,879.07,335.6,860.6,234.24l-40.66,63.49-34-21.8,73-114,30.51,19.54,18.51,100.92,40.45-63.16,34.29,22Z" transform="translate(-40 -40)"/><path class="b" d="M1060.78,454.86a71.24,71.24,0,0,1-33.91,11.91q-18.1,1.48-35.45-7.79t-31-30q-13.83-20.95-15.25-40.83t7.21-35.71a73.26,73.26,0,0,1,56.9-37.62q17.87-1.73,35.58,7.46t31.54,30.14q10.33,15.65,13.78,31t.72,28.48a63.57,63.57,0,0,1-10.59,24.19A73.26,73.26,0,0,1,1060.78,454.86Zm-22.92-34.72a41.19,41.19,0,0,0,10.38-9.54,29.71,29.71,0,0,0,5.39-11.69,31.5,31.5,0,0,0-.08-13.23,41,41,0,0,0-6.18-14.06q-9-13.69-22.19-16.24t-26.11,6q-13,8.55-15.79,21.72t6.15,26.77q6.19,9.37,14.25,13.53a29.55,29.55,0,0,0,16.89,3.25A38.37,38.37,0,0,0,1037.86,420.14Z" transform="translate(-40 -40)"/><path class="b" d="M1032.21,649.9l-5.86-35.85,63.07-81.46L1015,544.76l-6.53-39.9L1142.07,483l5.85,35.75L1085.2,600l74-12.11,6.57,40.19Z" transform="translate(-40 -40)"/></svg>